<svg xmlns="http://www.w3.org/2000/svg" viewBox="0 0 280 280"><rect width="280" height="280" fill="#804D7A" rx="35" ry="35"/><path fill="#FFF" d="M239.8 58.9a20 20 0 0 0-18.7-18.7c-13.1-.8-46.6.4-74.5 28.2L143 72H86.4a19.8 19.8 0 0 0-14.2 5.9L38 112.2a20 20 0 0 0 11.3 34l37.2 5.1 42.3 42.3 5.2 37.2a19.9 19.9 0 0 0 13.4 16.2 20.1 20.1 0 0 0 6.4 1 19.9 19.9 0 0 0 14.1-5.9l34.3-34.3a19.9 19.9 0 0 0 5.9-14.2V137l3.6-3.6A97.9 97.9 0 0 0 239.9 59ZM88 96h31l-31.3 31.3-27.2-3.8Zm75.6-10.6A72.3 72.3 0 0 1 216 64a72.2 72.2 0 0 1-21.4 52.4L140 171l-31-31ZM184 192l-27.5 27.5-3.8-27.2L184 161Zm-72 22c-8.7 11.8-26.2 26-60 26a12 12 0 0 1-12-12c0-33.8 14.1-51.3 26-60a12 12 0 1 1 14.2 19.3A40.9 40.9 0 0 0 65 215a40.8 40.8 0 0 0 27.7-15.2A12 12 0 1 1 112 214Z"/><style>@media (prefers-color-scheme:dark){rect{fill:#F1B3E6!important}path{fill:#4C1F49!important}}</style></svg>